# xmcd
#
# Track frame offsets:
#	150
#	12252
#	33573
#	49623
#	65487
#	82023
#	95371
#	112006
#	126606
#	142501
#	161307
#	176933
#	197045
#	213194
#	229343
#	245074
#	272210
#	291010
#
# Disc length: 4088 seconds
#
# Revision: 7
# Processed by: cddbd v1.5.1PL0 Copyright (c) Steve Scherf et al.
# Submitted via: dBpowerAMP V4.0
#
DISCID=090ff612
DTITLE=The Cure - Greatest Hits
DYEAR=2001
DGENRE=Darkwave
TTITLE0=Boys Don't Cry
TTITLE1=A Forest
TTITLE2=Let's Go To Bed
TTITLE3=The Walk
TTITLE4=The Love Cats
TTITLE5=In Between Days
TTITLE6=Close To Me
TTITLE7=Why Can't I Be You?
TTITLE8=Just Like Heaven
TTITLE9=Lullaby
TTITLE10=Lovesong
TTITLE11=Never Enough
TTITLE12=High
TTITLE13=Friday I'm In Love
TTITLE14=Mint Car
TTITLE15=Wrong Number
TTITLE16=Cut Here
TTITLE17=Just Say Yes
EXTD=
EXTT0=
EXTT1=
EXTT2=
EXTT3=
EXTT4=
EXTT5=
EXTT6=
EXTT7=
EXTT8=
EXTT9=
EXTT10=
EXTT11=
EXTT12=
EXTT13=
EXTT14=
EXTT15=
EXTT16=
EXTT17=
PLAYORDER=
